<svg width="26" height="30" viewBox="0 0 26 30" fill="none" xmlns="http://www.w3.org/2000/svg">
<path d="M26 21.0938V1.40625C26 0.626953 25.379 0 24.6071 0H5.57143C2.49554 0 0 2.51953 0 5.625V24.375C0 27.4805 2.49554 30 5.57143 30H24.6071C25.379 30 26 29.373 26 28.5938V27.6562C26 27.2168 25.7969 26.8184 25.4835 26.5605C25.2397 25.6582 25.2397 23.0859 25.4835 22.1836C25.7969 21.9316 26 21.5332 26 21.0938ZM7.42857 7.85156C7.42857 7.6582 7.58527 7.5 7.77679 7.5H20.0804C20.2719 7.5 20.4286 7.6582 20.4286 7.85156V9.02344C20.4286 9.2168 20.2719 9.375 20.0804 9.375H7.77679C7.58527 9.375 7.42857 9.2168 7.42857 9.02344V7.85156ZM7.42857 11.6016C7.42857 11.4082 7.58527 11.25 7.77679 11.25H20.0804C20.2719 11.25 20.4286 11.4082 20.4286 11.6016V12.7734C20.4286 12.9668 20.2719 13.125 20.0804 13.125H7.77679C7.58527 13.125 7.42857 12.9668 7.42857 12.7734V11.6016ZM22.1348 26.25H5.57143C4.5442 26.25 3.71429 25.4121 3.71429 24.375C3.71429 23.3438 4.55 22.5 5.57143 22.5H22.1348C22.0246 23.502 22.0246 25.248 22.1348 26.25Z" fill="#2AA2CA"/>
</svg>
