<svg width="22" height="29" viewBox="0 0 22 29" fill="none" xmlns="http://www.w3.org/2000/svg">
<path d="M19.25 3.625H14.6667C14.6667 1.62559 13.0224 0 11 0C8.9776 0 7.33333 1.62559 7.33333 3.625H2.75C1.23177 3.625 0 4.84277 0 6.34375V26.2812C0 27.7822 1.23177 29 2.75 29H19.25C20.7682 29 22 27.7822 22 26.2812V6.34375C22 4.84277 20.7682 3.625 19.25 3.625ZM11 2.26562C11.762 2.26562 12.375 2.87168 12.375 3.625C12.375 4.37832 11.762 4.98438 11 4.98438C10.238 4.98438 9.625 4.37832 9.625 3.625C9.625 2.87168 10.238 2.26562 11 2.26562ZM17.9438 15.3949L9.75104 23.4266C9.48177 23.6928 9.04635 23.6871 8.77708 23.4209L4.04479 18.7027C3.77552 18.4365 3.78125 18.0061 4.05052 17.7398L5.6776 16.1426C5.94688 15.8764 6.38229 15.882 6.65156 16.1482L9.28698 18.7764L15.3599 12.8178C15.6292 12.5516 16.0646 12.5572 16.3339 12.8234L17.9495 14.432C18.2188 14.7039 18.213 15.1287 17.9438 15.3949Z" fill="#2AA2CA"/>
</svg>
