<svg width="48" height="37" viewBox="0 0 48 37" fill="none" xmlns="http://www.w3.org/2000/svg">
<path d="M45.1858 0.00448508C40.619 0.261336 31.5422 1.19624 25.9388 4.5956C25.5521 4.83015 25.3329 5.24723 25.3329 5.6833V35.7349C25.3329 36.6888 26.3855 37.2917 27.273 36.849C33.0381 33.9733 41.3757 33.1887 45.4983 32.974C46.9058 32.9005 48 31.7822 48 30.4418V2.53996C48.0008 1.07731 46.7208 -0.0814073 45.1858 0.00448508ZM22.0612 4.5956C16.4586 1.19624 7.38179 0.262162 2.81505 0.00448508C1.28002 -0.0814073 0 1.07731 0 2.53996V30.4426C0 31.7839 1.09419 32.9021 2.50171 32.9748C6.62595 33.1895 14.9678 33.9749 20.7329 36.8523C21.6179 37.2942 22.6671 36.6921 22.6671 35.7407V5.66843C22.6671 5.23154 22.4487 4.83098 22.0612 4.5956Z" fill="#2AA2CA"/>
</svg>
