<svg width="66" height="51" viewBox="0 0 66 51" fill="none" xmlns="http://www.w3.org/2000/svg">
<g style="mix-blend-mode:multiply">
<path d="M7.68366 1.29178e-10H39.7295C41.7698 -1.1802e-05 43.7268 0.808676 45.172 2.24889C46.6171 3.68911 47.4325 5.64342 47.4394 7.68366V26.565C47.4325 28.6053 46.6171 30.5596 45.172 31.9998C43.7268 33.44 41.7698 34.2487 39.7295 34.2487H22.6838C22.6068 34.2261 22.5249 34.2261 22.4478 34.2487L8.68018 44.3974C8.62617 44.4428 8.56025 44.4716 8.49029 44.4805C8.42034 44.4893 8.3493 44.4779 8.28568 44.4475C8.22207 44.417 8.16856 44.3689 8.13156 44.3089C8.09455 44.2489 8.07562 44.1794 8.07702 44.1089V34.642C8.07702 34.5377 8.03558 34.4377 7.96181 34.3639C7.88804 34.2901 7.78799 34.2487 7.68366 34.2487C5.64583 34.2487 3.69146 33.4392 2.25049 31.9982C0.809527 30.5572 0 28.6028 0 26.565V7.68366C0 5.64583 0.809527 3.69146 2.25049 2.25049C3.69146 0.809527 5.64583 1.29178e-10 7.68366 1.29178e-10Z" fill="#006F95"/>
</g>
<g style="mix-blend-mode:multiply">
<path d="M58.7946 10.8044H29.7383C27.9018 10.8043 26.1394 11.5284 24.8334 12.8197C23.5275 14.1109 22.7834 15.865 22.7627 17.7014V34.7995C22.7627 36.6495 23.4976 38.4238 24.8058 39.732C26.114 41.0402 27.8883 41.7751 29.7383 41.7751H45.2105C45.278 41.7488 45.3529 41.7488 45.4203 41.7751L57.903 50.9273C57.9547 50.9678 58.0169 50.9926 58.0823 50.9986C58.1477 51.0046 58.2134 50.9915 58.2716 50.9611C58.3297 50.9306 58.3779 50.884 58.4102 50.8268C58.4425 50.7697 58.4576 50.7044 58.4537 50.6389V42.2209C58.4501 42.174 58.4562 42.1268 58.4717 42.0824C58.4872 42.038 58.5118 41.9972 58.5438 41.9627C58.5758 41.9282 58.6146 41.9007 58.6578 41.882C58.701 41.8633 58.7475 41.8536 58.7946 41.8538C60.6447 41.8538 62.4189 41.1189 63.7271 39.8107C65.0353 38.5025 65.7702 36.7282 65.7702 34.8782V17.7014C65.7495 15.865 65.0054 14.1109 63.6995 12.8197C62.3936 11.5284 60.6311 10.8043 58.7946 10.8044Z" fill="#006F95"/>
</g>
</svg>
