<svg width="22" height="30" viewBox="0 0 22 30" fill="none" xmlns="http://www.w3.org/2000/svg">
<path d="M9.86952 29.3947C1.54516 17.0526 0 15.7859 0 11.25C0 5.03678 4.92485 0 11 0C17.0752 0 22 5.03678 22 11.25C22 15.7859 20.4548 17.0526 12.1305 29.3947C11.5842 30.2018 10.4157 30.2017 9.86952 29.3947ZM11 15.9375C13.5313 15.9375 15.5833 13.8388 15.5833 11.25C15.5833 8.66115 13.5313 6.5625 11 6.5625C8.46868 6.5625 6.41667 8.66115 6.41667 11.25C6.41667 13.8388 8.46868 15.9375 11 15.9375Z" fill="#696969"/>
</svg>
