<svg width="26" height="23" viewBox="0 0 26 23" fill="none" xmlns="http://www.w3.org/2000/svg">
<path d="M15.6667 6.25V3.625C15.6667 2.92881 15.3857 2.26113 14.8856 1.76884C14.3855 1.27656 13.7072 1 13 1H3.66667C2.95942 1 2.28115 1.27656 1.78105 1.76884C1.28095 2.26113 1 2.92881 1 3.625V19.375C1 20.0712 1.28095 20.7389 1.78105 21.2312C2.28115 21.7234 2.95942 22 3.66667 22H13C13.7072 22 14.3855 21.7234 14.8856 21.2312C15.3857 20.7389 15.6667 20.0712 15.6667 19.375V16.75M9 11.5H25M25 11.5L21 7.5625M25 11.5L21 15.4375" stroke="#DE3636" stroke-width="2" stroke-linecap="round" stroke-linejoin="round"/>
</svg>
