<svg width="25" height="19" viewBox="0 0 25 19" fill="none" xmlns="http://www.w3.org/2000/svg">
<path d="M24.5264 6.19092C24.7168 6.03955 25 6.18115 25 6.42041V16.4058C25 17.6997 23.9502 18.7495 22.6562 18.7495H2.34375C1.0498 18.7495 0 17.6997 0 16.4058V6.42529C0 6.18115 0.27832 6.04443 0.473633 6.1958C1.56738 7.04541 3.01758 8.12451 7.99805 11.7427C9.02832 12.4946 10.7666 14.0767 12.5 14.0669C14.2432 14.0815 16.0156 12.4653 17.0068 11.7427C21.9873 8.12451 23.4326 7.04053 24.5264 6.19092ZM12.5 12.4995C13.6328 12.519 15.2637 11.0737 16.084 10.478C22.5635 5.77588 23.0566 5.36572 24.5508 4.19385C24.834 3.97412 25 3.63232 25 3.271V2.34326C25 1.04932 23.9502 -0.000488281 22.6562 -0.000488281H2.34375C1.0498 -0.000488281 0 1.04932 0 2.34326V3.271C0 3.63232 0.166016 3.96924 0.449219 4.19385C1.94336 5.36084 2.43652 5.77588 8.91602 10.478C9.73633 11.0737 11.3672 12.519 12.5 12.4995Z" fill="#696969"/>
</svg>
