<svg width="38" height="31" viewBox="0 0 38 31" fill="none" xmlns="http://www.w3.org/2000/svg">
<path d="M37.75 15.5V13.9375C37.7469 11.2448 36.6759 8.66337 34.7719 6.75937C32.8679 4.85538 30.2864 3.78435 27.5938 3.78125H25.5305C24.5858 2.79372 23.451 2.00771 22.1943 1.47063C20.9377 0.933556 19.5853 0.656527 18.2188 0.65625H10.4062C7.7136 0.659352 5.13212 1.73038 3.22812 3.63437C1.32413 5.53837 0.253102 8.11985 0.25 10.8125V12.375C0.25313 14.8553 1.16238 17.249 2.80673 19.1058C4.45108 20.9627 6.71721 22.1547 9.17891 22.4578L7.36328 26.0883C7.28447 26.2457 7.26117 26.4252 7.29715 26.5976C7.33313 26.7699 7.42628 26.9251 7.5615 27.0379C7.69671 27.1507 7.86607 27.2145 8.04209 27.2189C8.21811 27.2234 8.39048 27.1683 8.53125 27.0625L13.4117 23.4023C15.2138 24.8615 17.4625 25.6572 19.7812 25.6562H23.4273L29.4688 30.1875C29.6093 30.2954 29.7824 30.3523 29.9596 30.3488C30.1368 30.3454 30.3076 30.2818 30.4439 30.1685C30.5801 30.0552 30.6738 29.899 30.7096 29.7254C30.7454 29.5518 30.721 29.3712 30.6406 29.2133L28.825 25.5836C31.2885 25.2853 33.5572 24.0944 35.2019 22.2362C36.8465 20.378 37.7531 17.9815 37.75 15.5ZM13.8438 21.125L10.2414 23.8266L11.1094 22.0992C11.1691 21.9798 11.1971 21.847 11.1909 21.7137C11.1847 21.5803 11.1444 21.4507 11.0739 21.3374C11.0034 21.224 10.905 21.1306 10.7881 21.0661C10.6712 21.0015 10.5398 20.968 10.4062 20.9688C8.12787 20.9661 5.94358 20.0598 4.33252 18.4487C2.72146 16.8377 1.81519 14.6534 1.8125 12.375V10.8125C1.81519 8.53412 2.72146 6.34983 4.33252 4.73877C5.94358 3.12771 8.12787 2.22144 10.4062 2.21875H18.2188C20.4971 2.22144 22.6814 3.12771 24.2925 4.73877C25.9035 6.34983 26.8098 8.53412 26.8125 10.8125V12.375C26.8098 14.6534 25.9035 16.8377 24.2925 18.4487C22.6814 20.0598 20.4971 20.9661 18.2188 20.9688H14.3125C14.1435 20.9688 13.979 21.0236 13.8438 21.125ZM27.5938 24.0938C27.4602 24.093 27.3288 24.1265 27.2119 24.1911C27.095 24.2556 26.9966 24.349 26.9261 24.4624C26.8556 24.5757 26.8153 24.7053 26.8091 24.8387C26.8029 24.972 26.8309 25.1048 26.8906 25.2242L27.7547 26.9516L24.1562 24.25C24.021 24.1486 23.8565 24.0938 23.6875 24.0938H19.7812C18.0154 24.0941 16.2927 23.5483 14.8492 22.5312H18.2188C20.9114 22.5281 23.4929 21.4571 25.3969 19.5531C27.3009 17.6491 28.3719 15.0677 28.375 12.375V10.8125C28.3748 8.87254 27.8152 6.97378 26.7633 5.34375H27.5938C29.8721 5.34644 32.0564 6.25271 33.6675 7.86377C35.2785 9.47483 36.1848 11.6591 36.1875 13.9375V15.5C36.1891 16.629 35.968 17.7472 35.5367 18.7906C35.1054 19.834 34.4725 20.782 33.6741 21.5804C32.8758 22.3787 31.9278 23.0116 30.8844 23.4429C29.841 23.8742 28.7228 24.0954 27.5938 24.0938Z" fill="#007474"/>
</svg>
