<svg width="31" height="25" viewBox="0 0 31 25" fill="none" xmlns="http://www.w3.org/2000/svg">
<path d="M31 12.5004V11.2088C30.9974 8.98285 30.112 6.84883 28.5381 5.27486C26.9641 3.70089 24.8301 2.81551 22.6042 2.81295H20.8985C20.1176 1.99659 19.1795 1.34682 18.1407 0.902839C17.1018 0.458854 15.9839 0.229843 14.8542 0.229614H8.39583C6.16991 0.232178 4.03588 1.11756 2.46191 2.69153C0.887945 4.2655 0.00256394 6.39952 0 8.62545V9.91711C0.00258709 11.9675 0.754232 13.9462 2.11356 15.4812C3.47289 17.0162 5.34623 18.0017 7.38123 18.2522L5.88031 21.2534C5.81516 21.3836 5.7959 21.5319 5.82564 21.6744C5.85538 21.8169 5.93239 21.9452 6.04417 22.0384C6.15595 22.1317 6.29595 22.1844 6.44146 22.1881C6.58697 22.1918 6.72947 22.1462 6.84583 22.0588L10.8804 19.0331C12.3701 20.2393 14.229 20.897 16.1458 20.8963H19.1599L24.1542 24.6421C24.2704 24.7313 24.4135 24.7783 24.56 24.7755C24.7064 24.7726 24.8476 24.7201 24.9602 24.6264C25.0729 24.5328 25.1504 24.4036 25.1799 24.2601C25.2095 24.1166 25.1894 23.9673 25.1229 23.8368L23.622 20.8362C25.6585 20.5896 27.5339 19.6051 28.8935 18.069C30.2531 16.533 31.0025 14.5518 31 12.5004ZM11.2375 17.1504L8.25956 19.3837L8.97708 17.9558C9.02642 17.8571 9.04963 17.7473 9.0445 17.6371C9.03937 17.5268 9.00607 17.4197 8.94778 17.326C8.88948 17.2323 8.80814 17.1551 8.71151 17.1017C8.61489 17.0484 8.5062 17.0207 8.39583 17.0213C6.51237 17.0191 4.70669 16.2699 3.37488 14.9381C2.04307 13.6063 1.29389 11.8006 1.29167 9.91711V8.62545C1.29389 6.74199 2.04307 4.93631 3.37488 3.6045C4.70669 2.27269 6.51237 1.5235 8.39583 1.52128H14.8542C16.7376 1.5235 18.5433 2.27269 19.8751 3.6045C21.2069 4.93631 21.9561 6.74199 21.9583 8.62545V9.91711C21.9561 11.8006 21.2069 13.6063 19.8751 14.9381C18.5433 16.2699 16.7376 17.0191 14.8542 17.0213H11.625C11.4853 17.0213 11.3493 17.0666 11.2375 17.1504ZM22.6042 19.6046C22.4938 19.604 22.3851 19.6317 22.2885 19.685C22.1919 19.7384 22.1105 19.8156 22.0522 19.9093C21.9939 20.0031 21.9606 20.1102 21.9555 20.2204C21.9504 20.3307 21.9736 20.4404 22.0229 20.5391L22.7372 21.9671L19.7625 19.7338C19.6507 19.6499 19.5147 19.6046 19.375 19.6046H16.1458C14.6861 19.6049 13.262 19.1537 12.0687 18.3129H14.8542C17.0801 18.3104 19.2141 17.425 20.7881 15.851C22.362 14.2771 23.2474 12.143 23.25 9.91711V8.62545C23.2498 7.02174 22.7872 5.45211 21.9176 4.10461H22.6042C24.4876 4.10684 26.2933 4.85602 27.6251 6.18783C28.9569 7.51964 29.7061 9.32532 29.7083 11.2088V12.5004C29.7097 13.4338 29.5269 14.3582 29.1703 15.2207C28.8138 16.0832 28.2906 16.8669 27.6306 17.5269C26.9706 18.1868 26.1869 18.7101 25.3244 19.0666C24.4619 19.4231 23.5375 19.606 22.6042 19.6046Z" fill="#007474"/>
</svg>
