<svg width="22" height="22" viewBox="0 0 22 22" fill="none" xmlns="http://www.w3.org/2000/svg">
<path d="M19.5987 16.5387C19.5987 16.8537 19.5287 17.1775 19.38 17.4925C19.2312 17.8075 19.0388 18.105 18.785 18.385C18.3563 18.8575 17.8837 19.1988 17.35 19.4175C16.825 19.6363 16.2563 19.75 15.6438 19.75C14.7513 19.75 13.7975 19.54 12.7912 19.1113C11.785 18.6825 10.7787 18.105 9.78125 17.3788C8.775 16.6438 7.82125 15.83 6.91125 14.9287C6.01 14.0187 5.19625 13.065 4.47 12.0675C3.7525 11.07 3.175 10.0725 2.755 9.08375C2.335 8.08625 2.125 7.1325 2.125 6.2225C2.125 5.6275 2.23 5.05875 2.44 4.53375C2.65 4 2.9825 3.51 3.44625 3.0725C4.00625 2.52125 4.61875 2.25 5.26625 2.25C5.51125 2.25 5.75625 2.3025 5.975 2.4075C6.2025 2.5125 6.40375 2.67 6.56125 2.8975L8.59125 5.75875C8.74875 5.9775 8.8625 6.17875 8.94125 6.37125C9.02 6.555 9.06375 6.73875 9.06375 6.905C9.06375 7.115 9.0025 7.325 8.88 7.52625C8.76625 7.7275 8.6 7.9375 8.39 8.1475L7.725 8.83875C7.62875 8.935 7.585 9.04875 7.585 9.18875C7.585 9.25875 7.59375 9.32 7.61125 9.39C7.6375 9.46 7.66375 9.5125 7.68125 9.565C7.83875 9.85375 8.11 10.23 8.495 10.685C8.88875 11.14 9.30875 11.6038 9.76375 12.0675C10.2362 12.5313 10.6912 12.96 11.155 13.3537C11.61 13.7387 11.9862 14.0012 12.2837 14.1587C12.3275 14.1762 12.38 14.2025 12.4412 14.2287C12.5112 14.255 12.5812 14.2637 12.66 14.2637C12.8087 14.2637 12.9225 14.2113 13.0187 14.115L13.6838 13.4588C13.9025 13.24 14.1125 13.0737 14.3138 12.9688C14.515 12.8462 14.7162 12.785 14.935 12.785C15.1012 12.785 15.2763 12.82 15.4688 12.8988C15.6612 12.9775 15.8625 13.0913 16.0813 13.24L18.9775 15.2962C19.205 15.4537 19.3625 15.6375 19.4587 15.8562C19.5462 16.075 19.5987 16.2937 19.5987 16.5387Z" stroke="#03799A" stroke-width="1.5" stroke-miterlimit="10"/>
</svg>
