<svg width="18" height="31" viewBox="0 0 18 31" fill="none" xmlns="http://www.w3.org/2000/svg">
<path d="M17.4688 28.3051V2.61581C17.4679 1.93474 17.197 1.28179 16.7154 0.800199C16.2338 0.318608 15.5809 0.0476908 14.8998 0.046875H2.56893C1.88786 0.0476908 1.23492 0.318608 0.753324 0.800199C0.271732 1.28179 0.00081582 1.93474 0 2.61581V28.3051C0.00081582 28.9862 0.271732 29.6392 0.753324 30.1208C1.23492 30.6024 1.88786 30.8733 2.56893 30.8741H14.8998C15.5809 30.8733 16.2338 30.6024 16.7154 30.1208C17.197 29.6392 17.4679 28.9862 17.4688 28.3051ZM8.73438 29.3327C8.53114 29.3327 8.33247 29.2725 8.16349 29.1595C7.9945 29.0466 7.8628 28.8861 7.78502 28.6984C7.70725 28.5106 7.6869 28.304 7.72655 28.1047C7.7662 27.9053 7.86406 27.7223 8.00777 27.5785C8.15148 27.4348 8.33458 27.337 8.53391 27.2973C8.73324 27.2577 8.93985 27.278 9.12761 27.3558C9.31537 27.4336 9.47586 27.5653 9.58877 27.7343C9.70168 27.9032 9.76195 28.1019 9.76195 28.3051C9.76195 28.5777 9.65369 28.839 9.46098 29.0318C9.26827 29.2245 9.0069 29.3327 8.73438 29.3327ZM3.08272 25.7362V5.18474H14.386V25.7362H3.08272ZM10.0795 26.7638H14.8998C15.0361 26.7638 15.1668 26.7097 15.2631 26.6133C15.3595 26.517 15.4136 26.3863 15.4136 26.25V4.67096C15.4136 4.53469 15.3595 4.40401 15.2631 4.30765C15.1668 4.2113 15.0361 4.15717 14.8998 4.15717H2.56893C2.43267 4.15717 2.30199 4.2113 2.20563 4.30765C2.10928 4.40401 2.05515 4.53469 2.05515 4.67096V26.25C2.05515 26.3863 2.10928 26.517 2.20563 26.6133C2.30199 26.7097 2.43267 26.7638 2.56893 26.7638H7.38928C7.16661 26.9542 6.98783 27.1905 6.86525 27.4566C6.74266 27.7227 6.67919 28.0122 6.67919 28.3051C6.67919 28.5981 6.74266 28.8876 6.86525 29.1537C6.98783 29.4198 7.16661 29.6561 7.38928 29.8465H2.56893C2.16014 29.8465 1.76809 29.6841 1.47903 29.3951C1.18997 29.106 1.02757 28.7139 1.02757 28.3051V2.61581C1.02757 2.20701 1.18997 1.81496 1.47903 1.5259C1.76809 1.23684 2.16014 1.07445 2.56893 1.07445H14.8998C15.3086 1.07445 15.7007 1.23684 15.9897 1.5259C16.2788 1.81496 16.4412 2.20701 16.4412 2.61581V28.3051C16.4412 28.7139 16.2788 29.106 15.9897 29.3951C15.7007 29.6841 15.3086 29.8465 14.8998 29.8465H10.0795C10.3021 29.6561 10.4809 29.4198 10.6035 29.1537C10.7261 28.8876 10.7896 28.5981 10.7896 28.3051C10.7896 28.0122 10.7261 27.7227 10.6035 27.4566C10.4809 27.1905 10.3021 26.9542 10.0795 26.7638Z" fill="#007474"/>
</svg>
