<svg width="27" height="20" viewBox="0 0 27 20" fill="none" xmlns="http://www.w3.org/2000/svg">
<path fill-rule="evenodd" clip-rule="evenodd" d="M21.4692 0.413064L23.2563 0.596658C25.3719 0.835785 26.9606 2.64155 26.9282 4.77036V14.8068C26.9606 16.9356 25.3719 18.7413 23.2563 18.9806L21.5426 19.1642C16.1958 19.7148 10.8064 19.7148 5.45947 19.1642L3.67246 18.9806C1.5568 18.7413 -0.0318861 16.9356 0.000485941 14.8068V4.77036C-0.0318861 2.64155 1.5568 0.835785 3.67246 0.596658L5.38603 0.413064C10.733 -0.137688 16.1224 -0.137688 21.4692 0.413064ZM12.375 13.7297L17.1363 10.5475H17.2097C17.4663 10.3803 17.6211 10.0948 17.6211 9.78857C17.6211 9.48236 17.4663 9.19688 17.2097 9.02971L12.4484 5.84742C12.1673 5.65741 11.8043 5.63795 11.5045 5.79683C11.2047 5.9557 11.017 6.26697 11.0164 6.60627V12.9709C11.0322 13.2867 11.2095 13.5722 11.4856 13.7264C11.7617 13.8807 12.0978 13.882 12.375 13.7297Z" fill="black"/>
</svg>
